<svg xmlns="http://www.w3.org/2000/svg" viewBox="0 0 50 50">
  <path fill="#9fa8da" d="M 6.58772,49.324001 V 1.3507207 h 20.675808 q 3.513536,0 6.486528,1.4189281 2.972992,1.418928 5.135168,3.851376 2.162176,2.36488 3.310832,5.3378722 1.216224,2.972992 1.216224,6.013552 0,4.256784 -2.02704,8.040592 -1.959472,3.783808 -5.540576,6.216256 -3.513536,2.36488 -8.243296,2.36488 H 19.76348 V 49.324001 Z M 19.76348,23.107617 h 6.959504 q 0.810816,0 1.554064,-0.472976 0.743248,-0.472976 1.216224,-1.621632 0.540544,-1.148656 0.540544,-3.04056 0,-2.02704 -0.608112,-3.108128 Q 28.88516,13.715665 28.006776,13.310257 27.19596,12.837281 26.385144,12.837281 H 19.76348 Z"/>
</svg>
