<svg xmlns="http://www.w3.org/2000/svg" viewBox="0 0 140 50">
  <g fill="#9fa8da">
    <path d="M 6.553648,49.324001 V 1.3507207 h 20.675808 q 3.513536,0 6.486528,1.4189281 2.972992,1.418928 5.135168,3.851376 2.162176,2.36488 3.310832,5.3378722 1.216224,2.972992 1.216224,6.013552 0,4.256784 -2.02704,8.040592 -1.959472,3.783808 -5.540576,6.216256 -3.513536,2.36488 -8.243296,2.36488 h -7.837888 v 14.729824 z m 13.17576,-26.216384 h 6.959504 q 0.810816,0 1.554064,-0.472976 0.743248,-0.472976 1.216224,-1.621632 0.540544,-1.148656 0.540544,-3.04056 0,-2.02704 -0.608112,-3.108128 -0.540544,-1.148656 -1.418928,-1.554064 -0.810816,-0.472976 -1.621632,-0.472976 h -6.621664 z"/>
    <path d="m 62.432375,49.999681 q -4.72976,0 -8.378432,-1.486496 -3.648672,-1.486496 -6.148688,-4.05408 -2.432448,-2.635152 -3.71624,-5.945984 -1.216224,-3.310832 -1.216224,-6.959504 0,-3.648672 1.216224,-6.959504 1.283792,-3.3784 3.71624,-5.945984 2.500016,-2.567584 6.148688,-4.05408 3.648672,-1.486496 8.378432,-1.486496 4.797328,0 8.378433,1.486496 3.648672,1.486496 6.08112,4.05408 2.500016,2.567584 3.71624,5.945984 1.283792,3.310832 1.283792,6.959504 0,3.648672 -1.283792,6.959504 -1.216224,3.310832 -3.71624,5.945984 -2.432448,2.567584 -6.08112,4.05408 -3.581105,1.486496 -8.378433,1.486496 z M 56.148551,31.553617 q 0,2.36488 0.810816,4.121648 0.810816,1.6892 2.229744,2.635152 1.418928,0.878384 3.243264,0.878384 1.824336,0 3.243264,-0.878384 1.418928,-0.945952 2.229744,-2.635152 0.810816,-1.756768 0.810816,-4.121648 0,-2.36488 -0.810816,-4.05408 -0.810816,-1.756768 -2.229744,-2.635152 -1.418928,-0.945952 -3.243264,-0.945952 -1.824336,0 -3.243264,0.945952 -1.418928,0.878384 -2.229744,2.635152 -0.810816,1.6892 -0.810816,4.05408 z"/>
    <path d="m 86.148766,-6.3926697e-4 h 12.83792 V 35.202289 q 0,1.959472 0.810816,3.04056 0.878388,1.01352 2.500018,1.01352 0.81081,0 1.75677,-0.270272 0.94595,-0.270272 1.75676,-0.743248 l 1.62164,9.45952 q -2.29732,1.081088 -5.20274,1.6892 -2.837856,0.608112 -5.40544,0.608112 -5.135168,0 -7.905456,-2.635152 -2.770288,-2.70272 -2.770288,-7.635184 z"/>
    <path d="m 110.13537,-6.3926697e-4 h 12.83792 V 35.202289 q 0,1.959472 0.81082,3.04056 0.87838,1.01352 2.50001,1.01352 0.81082,0 1.75677,-0.270272 0.94595,-0.270272 1.75677,-0.743248 l 1.62163,9.45952 q -2.29731,1.081088 -5.20273,1.6892 -2.83786,0.608112 -5.40544,0.608112 -5.13517,0 -7.90546,-2.635152 -2.77029,-2.70272 -2.77029,-7.635184 z"/>
  </g>
</svg>
