<?xml version="1.0" standalone="no"?>
<!DOCTYPE svg PUBLIC "-//W3C//DTD SVG 20010904//EN"
 "http://www.w3.org/TR/2001/REC-SVG-20010904/DTD/svg10.dtd">
<svg version="1.0" xmlns="http://www.w3.org/2000/svg"
 width="700.000000pt" height="700.000000pt" viewBox="0 0 700.000000 700.000000"
 preserveAspectRatio="xMidYMid meet">
<metadata>
Created by potrace 1.14, written by Peter Selinger 2001-2017
</metadata>
<g transform="translate(0.000000,700.000000) scale(0.100000,-0.100000)"
fill="#000000" stroke="none">
<path d="M924 3453 l1 -3358 910 -1 c501 0 915 1 921 3 8 3 11 282 12 991 0
543 1 1005 1 1027 l1 41 588 0 c694 1 745 3 977 49 322 64 604 202 874 428
261 218 452 462 611 781 180 364 252 662 253 1051 1 107 -4 227 -12 275 -7 47
-14 99 -17 115 -32 215 -157 557 -294 800 -128 229 -385 527 -590 685 -25 19
-47 38 -50 41 -3 3 -54 38 -115 78 -133 88 -418 229 -475 236 -3 0 -9 3 -15 7
-26 16 -270 73 -405 94 -25 4 -750 9 -1611 11 l-1566 4 1 -3358z m2892 1729
c85 -26 176 -83 228 -143 46 -53 109 -182 130 -264 21 -82 30 -189 29 -322 -4
-309 -112 -556 -280 -642 -85 -43 -105 -44 -640 -45 -508 -1 -513 -1 -514 19
-1 27 -1 1386 0 1405 1 13 62 15 489 14 467 -1 492 -2 558 -22z"/>
</g>
</svg>
